# xmcd
#
# Track frame offsets:
#	187
#	16315
#	32955
#	42025
#	48905
#	57940
#	74742
#	83677
#
# Disc length: 1221 seconds
#
# Revision: 1
# Processed by: cddbd v1.5.1PL0 Copyright (c) Steve Scherf et al.
# Submitted via: CDex 1.50Beta5
#
DISCID=6404c308
DTITLE=日本ファルコム - Falcom SPECIAL BOX '89 Disc6 SURROUND THEATER
DYEAR=1900
DGENRE=Anime
TTITLE0=序章
TTITLE1=第1章
TTITLE2=第2章
TTITLE3=第3章
TTITLE4=第4章
TTITLE5=第5章
TTITLE6=第6章
TTITLE7=第7章
EXTD=
EXTT0=
EXTT1=
EXTT2=
EXTT3=
EXTT4=
EXTT5=
EXTT6=
EXTT7=
PLAYORDER=
